# xmcd CD database file
#
# Track frame offsets:
#	150
#	15457
#	31102
#	49234
#	65356
#	81063
#	93559
#	119820
#	134145
#	148041
#	163947
#	180578
#
# Disc length: 2677 seconds
#
# Revision: 0
# Processed by: cddbd v1.5.2PL0 Copyright (c) Steve Scherf et al.
# Submitted via: CDex 1.70beta2
#
DISCID=aa0a730c
DTITLE=Hus, Tim - Cdn. - Edmonton, AB - Bush Pilot Buckaroo
DYEAR=1900
DGENRE=Country
TTITLE0=Dempster Highway
TTITLE1=Cattlerack Cadillac
TTITLE2=Bush Pilot Buckaroo
TTITLE3=Battle Riveer
TTITLE4=A Hundred Grande
TTITLE5=Bakersfield Music
TTITLE6=Man With the Big Hat wt. Gary Fjellgaard
TTITLE7=Coal Mine
TTITLE8=Hockey Mom
TTITLE9=Vancouver Blues
TTITLE10=Roadhouse Band
TTITLE11=Teh Great Divide
EXTD=
EXTT0=
EXTT1=
EXTT2=
EXTT3=
EXTT4=
EXTT5=
EXTT6=
EXTT7=
EXTT8=
EXTT9=
EXTT10=
EXTT11=
PLAYORDER=
